<svg width="155" height="146" viewBox="0 0 155 146" fill="none" xmlns="http://www.w3.org/2000/svg">
<mask id="mask0_58819_958" style="mask-type:luminance" maskUnits="userSpaceOnUse" x="0" y="0" width="155" height="146">
<path d="M0 0H154.647V145.223H0V0Z" fill="white"/>
</mask>
<g mask="url(#mask0_58819_958)">
<mask id="mask1_58819_958" style="mask-type:luminance" maskUnits="userSpaceOnUse" x="0" y="0" width="155" height="146">
<path d="M0 0H154.647V145.223H0V0Z" fill="white"/>
</mask>
<g mask="url(#mask1_58819_958)">
<path fill-rule="evenodd" clip-rule="evenodd" d="M48.739 19.2583C44.5611 21.412 40.7477 24.2963 37.2341 27.4097C36.4164 28.1344 35.6234 28.8858 34.812 29.617C34.529 29.8717 33.9823 30.1946 33.8794 30.5792C33.839 30.4102 33.7465 30.6104 33.6573 30.6705C33.4613 30.8026 33.2916 31.0145 33.1258 31.1833C32.6292 31.6886 32.146 32.2079 31.65 32.7144C30.1313 34.265 28.8257 35.9996 27.417 37.6452C25.9212 39.393 24.7086 41.3706 23.5449 43.347C22.3555 45.3671 21.1928 47.4198 20.2834 49.5859C19.7233 50.9201 19.1967 52.2912 18.7056 53.6523C18.5129 54.1861 18.3554 54.7415 18.1303 55.2625C17.6471 57.0841 17.0448 58.8596 16.6699 60.7116C15.1829 68.0553 14.7902 75.644 15.9365 83.0697C16.5702 87.1758 17.9797 91.07 19.1781 95.0271C19.364 94.955 19.541 94.7057 19.6761 94.5631C20.0498 94.1688 20.4263 93.7766 20.8032 93.385C22.1177 92.0196 23.4666 90.6869 24.7964 89.3362C25.2217 88.9042 25.638 88.4619 26.0715 88.0386C26.2001 87.9135 26.5399 87.7096 26.5821 87.5415C26.779 87.4623 26.967 87.1771 27.1183 87.025C27.5366 86.6044 27.9756 86.2061 28.3967 85.7888C29.8456 84.3528 31.2745 82.894 32.6942 81.4291C33.1514 80.9577 33.5977 80.4748 34.0596 80.0084C34.1873 79.8795 34.5283 79.6551 34.5525 79.4796C34.7661 79.441 35.0192 79.0476 35.1697 78.8901C35.6436 78.3952 36.1355 77.9168 36.6146 77.427C38.157 75.8507 39.6862 74.2612 41.2453 72.7014C41.6888 72.2576 42.1305 71.8124 42.5777 71.3726C42.7495 71.2036 43.0693 71.0273 43.1693 70.811C44.3679 69.6964 45.4847 68.4781 46.6502 67.3273C50.1281 63.8926 53.5427 60.394 57.0096 56.9487C58.2835 55.6826 59.5043 54.3648 60.7799 53.1002C61.1192 52.7639 61.4537 52.4223 61.7965 52.0898C61.9152 51.9748 62.1882 51.8103 62.23 51.6543C59.1403 48.8332 56.0017 46.0579 52.9628 43.182C51.5678 41.8615 49.9284 40.7758 48.8734 39.1382C47.2482 36.6161 47.4838 33.2711 49.3839 30.9781C50.599 29.512 52.3755 28.6569 54.2499 28.439C55.2573 28.3221 56.3066 28.3984 57.3197 28.3944C59.4803 28.3859 61.641 28.3964 63.8016 28.3972C72.3608 28.4002 80.9198 28.3989 89.4788 28.4009C92.138 28.4014 94.797 28.3994 97.4562 28.4029C98.3103 28.4041 99.1646 28.4061 100.019 28.3994C100.349 28.3967 100.775 28.4844 101.093 28.4016C101.306 28.3466 101.537 28.0432 101.7 27.9023C102.28 27.4007 102.829 26.863 103.371 26.3203C105.163 24.5234 106.975 22.7462 108.757 20.943C111.436 18.2345 114.185 15.5972 116.865 12.8906C117.674 12.0739 118.527 11.2829 119.305 10.4388C120.575 9.06121 121.922 7.75241 123.287 6.46955C125.367 4.51459 127.554 2.65636 130.203 1.51161C132.352 0.583238 134.667 0.109583 136.999 0.0131061C144.522 -0.297763 151.578 4.95658 153.828 12.0457C155.003 15.7458 154.881 19.6504 153.675 23.3201C152 28.4188 148.012 32.0438 144.285 35.6765C139.36 40.4772 134.414 45.2566 129.539 50.1086C128.331 51.3117 127.1 52.4926 125.881 53.685C125.3 54.2536 124.515 54.8482 124.071 55.5295C124.014 56.5471 124.085 57.5902 124.086 58.6103C124.088 60.7709 124.086 62.9313 124.086 65.0919C124.085 71.7398 124.089 78.3875 124.087 85.0354C124.086 87.0574 124.087 89.0794 124.089 91.1015C124.09 92.2809 124.155 93.4852 124.053 94.6611C123.709 98.5972 120.416 101.604 116.484 101.684C115.536 101.704 114.653 101.568 113.779 101.182C111.532 100.19 109.912 98.0822 108.238 96.3608C105.317 93.3566 102.4 90.3416 99.4553 87.3618C95.2824 91.4171 91.2558 95.6127 87.1185 99.7053C86.1353 100.678 85.163 101.661 84.1771 102.63C83.9552 102.848 83.7318 103.065 83.5125 103.286L83.317 103.479L83.4038 103.566C83.2196 103.448 83.1084 103.706 82.9752 103.859C82.6026 104.287 82.167 104.679 81.7669 105.082C80.3477 106.513 78.916 107.932 77.501 109.367C77.1625 109.71 76.8207 110.05 76.4854 110.396C76.3555 110.53 76.174 110.622 76.2441 110.807C76.0661 110.687 75.9544 110.93 75.817 111.069C75.4541 111.438 75.0871 111.803 74.7254 112.173C73.1656 113.771 71.6032 115.372 70.019 116.945C69.5987 117.363 69.1786 117.78 68.7483 118.188C68.6344 118.296 68.2943 118.524 68.3759 118.659C68.1984 118.604 68.0246 118.862 67.8957 118.99C67.4617 119.422 67.0389 119.866 66.6054 120.299C65.162 121.74 63.7649 123.227 62.3288 124.676C61.9506 125.057 61.5689 125.434 61.1848 125.81C61.0586 125.933 60.8143 126.071 60.7894 126.244C60.556 126.241 60.2088 126.732 60.0417 126.895C59.4404 127.48 58.8389 128.064 58.2374 128.649C58.0793 128.802 57.6525 129.097 57.6208 129.315C61.1862 130.601 64.9506 131.419 68.7134 131.912C69.9846 132.078 71.2697 132.195 72.5448 132.323C73.0105 132.369 73.5066 132.312 73.964 132.401C74.2091 132.389 74.4721 132.474 74.7186 132.493C75.123 132.523 75.5331 132.513 75.9382 132.515C78.0325 132.522 80.1323 132.479 82.2214 132.325C85.2613 132.101 88.257 131.379 91.2269 130.729C92.8046 130.385 94.3809 129.982 95.9036 129.44C96.3588 129.278 97.1645 129.117 97.4824 128.738C97.8082 128.68 98.1328 128.494 98.4437 128.38C99.1708 128.112 99.8763 127.787 100.585 127.475C103.345 126.262 105.923 124.756 108.422 123.081C109.231 122.538 110.035 121.982 110.822 121.408C111.006 121.274 111.522 121.039 111.557 120.806C111.63 120.836 111.707 120.754 111.769 120.709C111.962 120.568 112.141 120.41 112.328 120.262C113.095 119.658 113.849 119.041 114.591 118.408C117.777 115.693 120.504 112.617 123.186 109.42C123.054 109.585 123.387 109.137 123.451 109.045C123.654 108.756 123.874 108.48 124.079 108.194C124.698 107.333 125.345 106.487 125.919 105.596C127.67 102.877 129.141 99.9349 130.422 96.9701C132.859 91.3261 134.463 85.3787 135.18 79.2702C135.403 77.3674 135.303 75.4211 135.306 73.5091C135.308 72.4022 135.235 71.2547 135.607 70.194C136.578 67.427 139.812 66.0744 142.339 67.7449C142.892 68.1101 143.37 68.6082 143.736 69.1596C144.482 70.2859 144.393 71.4544 144.354 72.7457C144.311 74.137 144.278 75.5318 144.262 76.9236C144.209 81.3733 143.453 85.7394 142.34 90.041C141.38 93.749 140.224 97.3901 138.644 100.885C136.432 105.78 133.858 110.435 130.567 114.7C126.367 120.142 121.311 124.866 115.735 128.868C114.594 129.687 113.475 130.537 112.285 131.284C111.137 132.004 109.926 132.623 108.741 133.28C107.664 133.879 106.605 134.499 105.479 135.008C99.8554 137.553 93.902 139.315 87.8292 140.373C84.0681 141.028 80.2953 141.485 76.4727 141.487C72.6812 141.488 68.9742 141.057 65.2365 140.457C63.2948 140.146 61.3416 139.839 59.4372 139.339C57.5615 138.847 55.6985 138.288 53.8625 137.666C53.1597 137.428 52.4483 137.218 51.7403 136.996C51.3344 136.87 50.9041 136.673 50.4776 136.648C48.465 138.529 46.5839 140.565 44.6504 142.526C43.6086 143.583 42.5932 144.836 41.0595 145.127C39.9995 145.327 38.8453 145.228 37.895 144.693C36.0243 143.639 35.3218 141.19 35.8802 139.207C36.1395 138.287 36.7829 137.586 37.4231 136.908C38.3041 135.975 39.2275 135.08 40.1426 134.181C40.5158 133.814 40.8935 133.452 41.2582 133.077C41.4681 132.861 41.6888 132.575 41.9398 132.41C42.2502 131.876 42.7941 131.414 43.2142 130.964C44.1159 129.999 45.0283 129.048 45.9567 128.108C48.6869 125.344 51.4187 122.58 54.1843 119.851C55.7342 118.323 57.3352 116.83 58.8646 115.284C61.3852 112.736 63.8375 110.112 66.3696 107.571C70.4333 103.492 74.5706 99.4835 78.5966 95.3731C80.9787 92.9412 83.3871 90.545 85.798 88.1423C86.5566 87.3865 87.3172 86.6319 88.0646 85.865C88.3174 85.6058 88.7589 85.3348 88.9241 85.016C88.9805 84.6774 88.9346 84.2985 88.9353 83.955C88.9366 83.2903 88.9368 82.6255 88.9368 81.9609C88.9363 80.1635 88.9974 78.3543 88.9196 76.5584C89.0129 75.6031 88.9353 74.6104 88.9348 73.6509C88.9343 71.602 88.9034 69.55 88.9331 67.5016C88.3939 67.8636 87.9888 68.4554 87.5248 68.9066C86.405 69.996 85.2899 71.0897 84.1831 72.192C80.9669 75.3952 77.7358 78.5837 74.5327 81.7998C71.6521 84.6921 68.7383 87.5366 65.9231 90.4922C64.962 91.5013 63.8988 92.4207 62.9231 93.4181C59.1002 97.3261 55.1494 101.101 51.2646 104.946C49.353 106.838 47.4913 108.781 45.5957 110.689C42.1317 114.176 38.5988 117.595 35.1251 121.072C34.2247 121.973 33.3419 122.891 32.4544 123.805C32.2004 124.067 31.5744 124.487 31.5403 124.86C31.3276 124.763 31.1274 124.512 30.9517 124.355C30.572 124.018 30.1834 123.692 29.7932 123.367C28.6178 122.39 27.5139 121.337 26.4465 120.244C25.9992 119.786 25.3897 119.316 25.0509 118.774C25.9352 118.301 26.5409 117.394 27.2023 116.676C28.2294 115.561 29.3143 114.497 30.3983 113.438C34.7846 109.153 39.0859 104.779 43.4206 100.442C48.5892 95.2694 53.7518 90.0923 58.9159 84.9165C59.9699 83.86 60.9846 82.7633 62.0481 81.7171C64.7973 79.0117 67.5624 76.3243 70.2727 73.5791C72.9659 70.8513 75.6348 68.1001 78.3259 65.3701C79.0077 64.6783 79.6709 63.9626 80.3719 63.2905C81.0542 62.6369 81.7961 62.0004 82.4061 61.2785C81.6742 61.36 80.9086 61.3076 80.1717 61.3074C78.8976 61.3069 77.6234 61.3079 76.3493 61.3071C75.8307 61.3069 75.312 61.3074 74.7934 61.3076C74.5274 61.3076 74.2495 61.2543 74.0268 61.4221L74.1261 61.3096L73.9673 61.3106C73.7504 61.3086 73.5335 61.3136 73.3166 61.3104C72.6104 61.3002 71.9034 61.3096 71.1971 61.3076C70.3236 61.3054 69.4446 61.3301 68.5718 61.2937C67.546 61.251 66.4822 61.1356 65.4576 61.2376C65.0126 61.4921 64.6095 62.066 64.2545 62.4387C63.4344 63.2997 62.6184 64.1643 61.7913 65.0191C59.2251 67.6714 56.5733 70.2381 53.9899 72.8736C50.6391 76.2919 47.2206 79.6417 43.8571 83.047C38.7835 88.1835 33.7136 93.3249 28.6123 98.4344C25.7464 101.305 22.8873 104.183 19.989 107.02C19.3221 107.673 18.6715 108.341 18.0216 109.01C17.8653 109.171 17.3649 109.577 17.5045 109.763C17.3919 109.749 16.9925 110.327 16.8614 110.453C16.1299 111.158 15.4097 111.875 14.6955 112.597C13.0828 114.228 11.4539 115.851 9.91231 117.549C8.8411 118.729 7.65895 120.21 6.19759 120.911C5.67931 121.159 5.13161 121.286 4.55724 121.295C3.82731 121.307 3.09114 121.2 2.42603 120.883C0.381323 119.907 -0.49918 117.319 0.282604 115.243C0.894619 113.619 2.435 112.44 3.63286 111.254C5.55341 109.352 7.40591 107.384 9.32996 105.485C10.0419 104.783 10.7484 104.074 11.444 103.355C11.7668 103.022 12.2063 102.648 12.4474 102.253C12.3594 101.856 12.1153 101.453 11.9548 101.079C11.6539 100.379 11.3824 99.6679 11.1072 98.9574C10.2915 96.8512 9.61715 94.692 8.98943 92.5237C7.09355 85.972 6.21354 79.2191 6.31949 72.403C6.44788 64.1501 7.91123 55.7978 11.0346 48.13C15.0797 38.2004 21.4299 29.1615 29.3946 21.9808C32.5644 19.1229 36.037 16.5998 39.6615 14.3545C45.4613 10.7616 51.6667 7.96831 58.2817 6.25516C62.2522 5.22708 66.2738 4.41413 70.3535 3.97188C74.5137 3.52116 78.7731 3.61041 82.9304 4.02623C84.5219 4.18553 86.0974 4.4246 87.6819 4.64497C88.9989 4.8282 90.4181 5.01169 91.5666 5.7334C93.3618 6.8617 94.5412 8.99016 93.7053 11.0772C93.554 11.4549 93.3695 11.8119 93.126 12.1387C92.839 12.5244 92.4808 12.8871 92.0859 13.1633C91.4545 13.6053 90.6864 13.8329 89.933 13.9548C88.6818 14.1573 87.385 13.6472 86.1684 13.4171C84.1806 13.0409 82.1723 12.8619 80.1572 12.7171C78.5361 12.6007 76.9144 12.6475 75.2943 12.6772C73.006 12.7186 70.7142 12.825 68.4419 13.1087C66.6495 13.3326 64.8541 13.715 63.0896 14.0964C59.7877 14.8104 56.4564 15.8183 53.3417 17.1301C52.2959 17.5706 51.2639 18.0398 50.2276 18.5017C49.881 18.6563 49.5315 18.8111 49.192 18.9806C49.0556 19.0487 48.739 19.2583 48.739 19.2583ZM68.8682 44.154C68.8769 44.3572 69.2516 44.6187 69.393 44.7575C69.9095 45.2646 70.4517 45.7467 70.979 46.2423C73.0187 48.1587 75.2028 50.0019 77.067 52.0938C77.3661 52.2334 77.8548 52.1102 78.1771 52.0987C79.0339 52.0678 79.8957 52.0898 80.753 52.089C82.9967 52.0873 85.2406 52.085 87.4842 52.0853C88.1768 52.0853 88.8693 52.0855 89.5618 52.0833C89.946 52.082 90.3618 52.0414 90.741 52.104C90.9843 52.2067 91.2029 52.4996 91.3909 52.6821C91.8628 53.1398 92.3148 53.6179 92.7837 54.0791C94.0324 55.3074 95.2893 56.5279 96.5161 57.7784C96.9023 58.1723 97.2872 58.5662 97.6634 58.9695C97.8177 59.1348 98.0266 59.2904 98.1365 59.4888C98.2639 60.6114 98.1597 61.8015 98.1602 62.9315C98.1612 65.1196 98.16 67.3079 98.1587 69.4962C98.1582 70.3538 98.0667 71.2649 98.1547 72.1168C98.5037 72.7889 99.3177 73.3099 99.8399 73.8498C101.077 75.1287 102.313 76.4091 103.543 77.6947C106.417 80.6999 109.259 83.7331 112.121 86.7495C113.047 87.7253 113.893 88.8129 114.854 89.7488C114.776 87.743 114.864 85.7142 114.864 83.7059C114.863 82.1992 114.75 80.6433 114.871 79.1418C114.924 77.9293 114.863 76.6945 114.862 75.4792C114.861 72.903 114.859 70.3271 114.859 67.7511C114.859 66.0061 114.859 64.261 114.86 62.516C114.861 61.5858 114.933 60.6273 114.838 59.7017C114.926 59.3317 114.867 58.8663 114.867 58.4851C114.866 57.6799 114.852 56.8747 114.848 56.0697C114.842 54.492 115.139 52.9072 115.808 51.469C116.551 49.873 117.799 48.7073 119.056 47.52C120.05 46.5814 121.026 45.6251 121.987 44.6528C126.555 40.0317 131.239 35.526 135.815 30.9115C137.655 29.0555 139.539 27.2434 141.377 25.3854C142.768 23.9794 144.235 22.6136 145.152 20.8333C145.9 19.3797 146.057 17.5945 145.835 15.9966C145.732 15.2614 145.476 14.5574 145.17 13.8848C144.835 13.1501 144.404 12.4683 143.871 11.8605C141.059 8.65462 136.202 8.08273 132.646 10.3613C131.272 11.2415 130.157 12.4661 129.034 13.6338C128.032 14.677 126.992 15.6847 125.982 16.72C121.784 21.0196 117.497 25.2461 113.201 29.4472C111.774 30.8425 110.31 32.1899 108.864 33.5633C107.905 34.4744 107.03 35.4375 105.891 36.1382C104.609 36.928 103.08 37.4173 101.583 37.5737C100.575 37.6789 99.5478 37.628 98.5361 37.6282C96.8741 37.6287 95.2123 37.628 93.5503 37.6277C92.4424 37.6275 91.3345 37.631 90.2264 37.6285C89.9502 37.628 89.2278 37.5096 89.1118 37.7656C89.0251 37.7377 88.9967 37.6582 88.9034 37.6402C88.5056 37.5637 88.0538 37.6175 87.6505 37.6225C86.9856 37.6305 86.3208 37.6278 85.6559 37.6275C83.3846 37.6268 81.1133 37.6268 78.842 37.6275C78.047 37.6278 77.252 37.6215 76.457 37.6275C76.2513 37.629 75.7442 37.5442 75.7295 37.7696C75.5062 37.5442 75.0577 37.6185 74.763 37.6185C73.9344 37.6185 73.1057 37.6287 72.2771 37.6287C68.9061 37.6285 65.5287 37.5737 62.159 37.629C63.6994 39.1098 65.2308 40.6103 66.7537 42.1088C67.1768 42.5251 67.6066 42.9345 68.0186 43.3617C68.2834 43.6365 68.5289 43.9698 68.8682 44.154Z" fill="#F4F4F4"/>
</g>
<mask id="mask2_58819_958" style="mask-type:luminance" maskUnits="userSpaceOnUse" x="0" y="0" width="155" height="146">
<path d="M0 0H154.647V145.223H0V0Z" fill="white"/>
</mask>
<g mask="url(#mask2_58819_958)">
<path fill-rule="evenodd" clip-rule="evenodd" d="M3.96944 133.582C4.08287 131.963 5.32884 130.855 6.4008 129.785C8.32609 127.862 10.2783 125.954 12.1495 123.979C13.1502 122.922 14.109 121.661 15.4751 121.068C17.0175 120.398 18.957 120.908 20.0307 122.19C20.7656 123.067 21.0947 124.138 21.051 125.272C20.9892 126.884 19.6228 127.984 18.5755 129.049C16.6692 130.987 14.811 132.971 12.9333 134.936C11.8853 136.033 10.8627 137.401 9.42299 137.996C9.0119 138.166 8.56566 138.196 8.12591 138.188C5.71125 138.143 3.80216 135.97 3.96944 133.582Z" fill="#FD9104"/>
</g>
<mask id="mask3_58819_958" style="mask-type:luminance" maskUnits="userSpaceOnUse" x="0" y="0" width="155" height="146">
<path d="M0 0H154.647V145.223H0V0Z" fill="white"/>
</mask>
<g mask="url(#mask3_58819_958)">
<path fill-rule="evenodd" clip-rule="evenodd" d="M18.1303 55.2625C18.3542 55.3069 18.3367 55.5734 18.315 55.7828C18.2532 56.3848 18.22 56.9757 18.1806 57.5797C18.0199 60.0572 18.0303 62.497 18.3671 64.9595C19.1793 70.894 20.9441 76.7596 23.5375 82.1588C24.1699 83.4756 24.7784 84.7913 25.5353 86.0438C25.8145 86.5062 26.1418 87.2184 26.5821 87.5415C26.54 87.7096 26.2002 87.9135 26.0715 88.0386C25.638 88.4619 25.2217 88.9042 24.7964 89.3362C23.4667 90.6869 22.1177 92.0196 20.8032 93.385C20.4263 93.7766 20.0498 94.1688 19.6762 94.5631C19.541 94.7057 19.364 94.955 19.1781 95.0271C17.9797 91.07 16.5702 87.1758 15.9365 83.0697C14.7903 75.644 15.1829 68.0553 16.6699 60.7116C17.0449 58.8596 17.6472 57.0841 18.1303 55.2625Z" fill="#049AC9"/>
</g>
<mask id="mask4_58819_958" style="mask-type:luminance" maskUnits="userSpaceOnUse" x="0" y="0" width="155" height="146">
<path d="M0 0H154.647V145.223H0V0Z" fill="white"/>
</mask>
<g mask="url(#mask4_58819_958)">
<path fill-rule="evenodd" clip-rule="evenodd" d="M74.0268 61.4221C73.9747 61.5654 73.8055 61.6896 73.6983 61.796C73.4707 62.0221 73.2453 62.2502 73.02 62.4786C72.1487 63.3606 71.2627 64.2286 70.3839 65.1031C67.3749 68.0977 64.4094 71.1395 61.4338 74.1672C51.8976 83.8712 42.29 93.5042 32.6312 103.086C29.9974 105.698 27.313 108.262 24.7331 110.929C23.9358 111.752 23.1478 112.594 22.3094 113.377C21.9976 113.668 21.6266 114.161 21.2235 114.308C21.0998 114.251 21.0196 114.092 20.9378 113.984C20.7274 113.707 20.516 113.432 20.3014 113.158C19.6764 112.363 19.0497 111.572 18.4102 110.789C18.1547 110.477 17.8516 109.968 17.5045 109.763C17.3649 109.577 17.8653 109.171 18.0216 109.01C18.6715 108.341 19.3221 107.673 19.989 107.02C22.8873 104.183 25.7464 101.305 28.6123 98.4344C33.7136 93.3249 38.7835 88.1835 43.8571 83.047C47.2206 79.6417 50.6391 76.2919 53.9899 72.8736C56.5733 70.2381 59.225 67.6714 61.7913 65.0191C62.6184 64.1643 63.4344 63.2997 64.2545 62.4387C64.6095 62.066 65.0126 61.4921 65.4576 61.2376C66.4822 61.1356 67.546 61.2511 68.5718 61.2937C69.4446 61.3301 70.3236 61.3054 71.1971 61.3076C71.9034 61.3096 72.6104 61.3002 73.3166 61.3104C73.5335 61.3136 73.7504 61.3086 73.9673 61.3106L74.1261 61.3096L74.0268 61.4221Z" fill="#FFBE2F"/>
</g>
<mask id="mask5_58819_958" style="mask-type:luminance" maskUnits="userSpaceOnUse" x="0" y="0" width="155" height="146">
<path d="M0 0H154.647V145.223H0V0Z" fill="white"/>
</mask>
<g mask="url(#mask5_58819_958)">
<path fill-rule="evenodd" clip-rule="evenodd" d="M18.1303 55.2625C18.3554 54.7415 18.513 54.1861 18.7057 53.6523C19.1968 52.2912 19.7233 50.9201 20.2835 49.5859C21.1929 47.4197 22.3556 45.3671 23.545 43.347C24.7087 41.3706 25.9212 39.393 27.417 37.6452C28.8257 35.9996 30.1313 34.265 31.65 32.7144C32.1461 32.2079 32.6292 31.6886 33.1258 31.1832C33.2916 31.0145 33.4614 30.8026 33.6573 30.6705C33.7465 30.6104 33.839 30.4102 33.8794 30.5792C33.4317 31.8489 32.7748 33.0387 32.274 34.2895C31.7066 35.7064 31.2384 37.172 30.8064 38.6351C30.4095 39.9793 29.979 41.3016 29.6816 42.6742C28.7218 47.1041 28.3675 51.6495 28.5136 56.1757C28.6677 60.9444 29.2635 65.6802 30.6777 70.255C31.3481 72.4234 32.0972 74.5681 33.045 76.6317C33.3135 77.2163 33.6025 77.7991 33.9163 78.3608C34.124 78.7317 34.392 79.0855 34.5525 79.4796C34.5283 79.6551 34.1873 79.8795 34.0597 80.0084C33.5977 80.4748 33.1515 80.9577 32.6943 81.4291C31.2745 82.894 29.8456 84.3528 28.3967 85.7887C27.9756 86.2061 27.5366 86.6044 27.1183 87.025C26.967 87.1771 26.779 87.4623 26.5821 87.5415C26.1418 87.2184 25.8145 86.5062 25.5353 86.0438C24.7785 84.7913 24.1699 83.4756 23.5375 82.1588C20.9441 76.7596 19.1793 70.894 18.3671 64.9595C18.0303 62.497 18.0199 60.0572 18.1807 57.5797C18.22 56.9757 18.2532 56.3848 18.315 55.7828C18.3367 55.5734 18.3542 55.3069 18.1303 55.2625Z" fill="#01DAF1"/>
</g>
<mask id="mask6_58819_958" style="mask-type:luminance" maskUnits="userSpaceOnUse" x="0" y="0" width="155" height="146">
<path d="M0 0H154.647V145.223H0V0Z" fill="white"/>
</mask>
<g mask="url(#mask6_58819_958)">
<path fill-rule="evenodd" clip-rule="evenodd" d="M21.2235 114.308C21.6266 114.161 21.9976 113.668 22.3094 113.377C23.1478 112.594 23.9358 111.752 24.7331 110.929C27.313 108.262 29.9974 105.698 32.6312 103.086C42.2901 93.5042 51.8976 83.8712 61.4338 74.1672C64.4094 71.1396 67.375 68.0977 70.3839 65.1032C71.2627 64.2286 72.1487 63.3606 73.02 62.4786C73.2453 62.2503 73.4707 62.0222 73.6983 61.796C73.8055 61.6896 73.9748 61.5654 74.0269 61.4221C74.2495 61.2543 74.5274 61.3077 74.7934 61.3077C75.312 61.3074 75.8307 61.3069 76.3493 61.3072C77.6234 61.3079 78.8976 61.3069 80.1717 61.3074C80.9086 61.3077 81.6742 61.36 82.4061 61.2785C81.7961 62.0005 81.0542 62.6369 80.3719 63.2906C79.6709 63.9627 79.0077 64.6784 78.3259 65.3702C75.6348 68.1002 72.9659 70.8514 70.2728 73.5791C67.5624 76.3244 64.7973 79.0117 62.0481 81.7171C60.9846 82.7634 59.9699 83.86 58.9159 84.9165C53.7518 90.0923 48.5892 95.2694 43.4206 100.442C39.0859 104.779 34.7846 109.153 30.3983 113.438C29.3143 114.497 28.2294 115.561 27.2023 116.676C26.5409 117.394 25.9352 118.301 25.0509 118.774C24.7341 118.604 24.4484 118.168 24.2061 117.904C23.4998 117.134 22.8539 116.317 22.1865 115.514C21.9053 115.176 21.3449 114.734 21.2235 114.308Z" fill="#FDA204"/>
</g>
<mask id="mask7_58819_958" style="mask-type:luminance" maskUnits="userSpaceOnUse" x="0" y="0" width="155" height="146">
<path d="M0 0H154.647V145.223H0V0Z" fill="white"/>
</mask>
<g mask="url(#mask7_58819_958)">
<path fill-rule="evenodd" clip-rule="evenodd" d="M21.5049 136.241C21.64 133.824 24.1714 131.633 26.5848 131.955C28.2229 132.174 29.4875 133.244 30.196 134.703C30.4957 135.32 30.5612 136.057 30.5211 136.734C30.3538 139.563 27.2536 141.739 24.5485 140.904C23.2973 140.518 22.3159 139.443 21.821 138.258C21.5583 137.628 21.467 136.92 21.5049 136.241Z" fill="#F24562"/>
</g>
<mask id="mask8_58819_958" style="mask-type:luminance" maskUnits="userSpaceOnUse" x="0" y="0" width="155" height="146">
<path d="M0 0H154.647V145.223H0V0Z" fill="white"/>
</mask>
<g mask="url(#mask8_58819_958)">
<path fill-rule="evenodd" clip-rule="evenodd" d="M33.8794 30.5792C33.9824 30.1946 34.5291 29.8717 34.812 29.6169C35.6235 28.8858 36.4165 28.1344 37.2341 27.4097C40.7477 24.2963 44.5611 21.4119 48.739 19.2583C48.3377 19.992 47.7309 20.6371 47.2827 21.3516C45.9569 23.4646 44.6327 25.6636 43.6056 27.9407C41.8254 31.8878 40.4199 36.0769 39.6363 40.3416C39.2247 42.582 39.0637 44.8725 38.9518 47.142C38.7685 50.8548 38.8989 54.651 39.5082 58.3213C40.0566 61.6237 40.9446 64.8304 42.041 67.9882C42.2945 68.7189 42.5765 69.4398 42.8338 70.1693C42.8864 70.3188 43.009 70.8234 43.1693 70.8109C43.0694 71.0273 42.7495 71.2036 42.5777 71.3726C42.1305 71.8124 41.6888 72.2576 41.2453 72.7013C39.6862 74.2612 38.157 75.8507 36.6146 77.427C36.1355 77.9168 35.6436 78.3952 35.1697 78.8901C35.0192 79.0476 34.7661 79.441 34.5525 79.4796C34.3919 79.0855 34.124 78.7318 33.9163 78.3608C33.6024 77.7991 33.3135 77.2163 33.045 76.6317C32.0972 74.5681 31.3481 72.4234 30.6777 70.255C29.2635 65.6802 28.6677 60.9444 28.5136 56.1757C28.3675 51.6495 28.7218 47.1041 29.6815 42.6742C29.979 41.3016 30.4095 39.9793 30.8064 38.6351C31.2384 37.172 31.7066 35.7064 32.2739 34.2895C32.7748 33.0387 33.4317 31.8489 33.8794 30.5792Z" fill="#74F2FB"/>
</g>
<mask id="mask9_58819_958" style="mask-type:luminance" maskUnits="userSpaceOnUse" x="0" y="0" width="155" height="146">
<path d="M0 0H154.647V145.223H0V0Z" fill="white"/>
</mask>
<g mask="url(#mask9_58819_958)">
<path fill-rule="evenodd" clip-rule="evenodd" d="M88.9197 76.5584C88.7778 76.4505 88.6736 76.6023 88.5587 76.709C88.2907 76.9578 88.0397 77.2285 87.7941 77.4993C86.7112 78.6946 85.5487 79.8361 84.4122 80.9811C82.3642 83.045 80.2864 85.079 78.2526 87.1571C75.4608 90.0093 72.7104 92.8924 69.8203 95.6468C66.7724 98.5516 63.8228 101.543 60.8749 104.549C59.8682 105.576 58.9142 106.664 57.8918 107.673C54.028 111.489 50.2483 115.389 46.3633 119.184C43.9952 121.497 41.6446 123.827 39.3195 126.184C38.6748 126.837 38.0546 127.521 37.3919 128.156C37.1833 128.356 36.6997 128.604 36.6069 128.859C35.3348 128.013 34.1162 127.052 32.9426 126.073C32.4938 125.699 31.8978 125.321 31.5403 124.86C31.5744 124.487 32.2004 124.067 32.4544 123.805C33.3419 122.891 34.2247 121.973 35.1251 121.072C38.5988 117.595 42.1318 114.176 45.5957 110.689C47.4913 108.781 49.353 106.838 51.2646 104.946C55.1494 101.101 59.1002 97.3261 62.9231 93.4181C63.8988 92.4207 64.9621 91.5013 65.9231 90.4922C68.7384 87.5366 71.6521 84.6921 74.5327 81.7998C77.7359 78.5837 80.9669 75.3952 84.1831 72.192C85.2899 71.0897 86.405 69.996 87.5249 68.9066C87.9888 68.4554 88.3939 67.8636 88.9331 67.5016C88.9035 69.55 88.9344 71.602 88.9349 73.6509C88.9354 74.6104 89.0129 75.6031 88.9197 76.5584Z" fill="#FB8F4F"/>
</g>
<mask id="mask10_58819_958" style="mask-type:luminance" maskUnits="userSpaceOnUse" x="0" y="0" width="155" height="146">
<path d="M0 0H154.647V145.223H0V0Z" fill="white"/>
</mask>
<g mask="url(#mask10_58819_958)">
<path fill-rule="evenodd" clip-rule="evenodd" d="M88.9197 76.5584C88.9974 78.3543 88.9364 80.1634 88.9369 81.9609C88.9369 82.6255 88.9366 83.2903 88.9354 83.9549C88.9346 84.2985 88.9805 84.6774 88.9242 85.0159C88.7589 85.3348 88.3174 85.6058 88.0646 85.865C87.3172 86.6319 86.5566 87.3865 85.798 88.1423C83.3871 90.545 80.9787 92.9412 78.5967 95.3731C74.5706 99.4834 70.4333 103.492 66.3696 107.571C63.8375 110.112 61.3852 112.736 58.8646 115.284C57.3352 116.83 55.7342 118.323 54.1844 119.851C51.4187 122.58 48.6869 125.344 45.9567 128.108C45.0283 129.048 44.1159 129.999 43.2142 130.964C42.7941 131.414 42.2502 131.876 41.9398 132.41C41.8728 132.257 41.696 132.148 41.5679 132.046C41.2164 131.766 40.825 131.544 40.4391 131.315C39.5656 130.798 38.696 130.269 37.8427 129.719C37.4545 129.468 36.9093 129.209 36.6069 128.859C36.6997 128.604 37.1833 128.356 37.392 128.156C38.0546 127.521 38.6748 126.837 39.3195 126.184C41.6447 123.827 43.9952 121.497 46.3633 119.184C50.2483 115.389 54.0281 111.489 57.8919 107.673C58.9142 106.664 59.8683 105.576 60.8749 104.549C63.8228 101.543 66.7724 98.5516 69.8203 95.6468C72.7104 92.8924 75.4608 90.0093 78.2527 87.1571C80.2864 85.079 82.3643 83.045 84.4122 80.9811C85.5487 79.8361 86.7112 78.6946 87.7941 77.4992C88.0397 77.2285 88.2907 76.9578 88.5587 76.709C88.6736 76.6023 88.7778 76.4505 88.9197 76.5584Z" fill="#F7753C"/>
</g>
<mask id="mask11_58819_958" style="mask-type:luminance" maskUnits="userSpaceOnUse" x="0" y="0" width="155" height="146">
<path d="M0 0H154.647V145.223H0V0Z" fill="white"/>
</mask>
<g mask="url(#mask11_58819_958)">
<path fill-rule="evenodd" clip-rule="evenodd" d="M60.7894 126.244C61.0053 126.488 61.3573 126.648 61.6332 126.818C62.2757 127.213 62.9365 127.565 63.6094 127.905C65.8617 129.042 68.1759 130.055 70.4991 131.036C71.3327 131.388 72.1808 131.684 73.0531 131.924C73.3211 131.997 73.8631 132.101 73.964 132.401C73.5066 132.312 73.0105 132.369 72.5448 132.323C71.2697 132.195 69.9846 132.078 68.7134 131.912C64.9506 131.419 61.1862 130.601 57.6208 129.315C57.6525 129.097 58.0793 128.802 58.2373 128.649C58.8389 128.064 59.4404 127.48 60.0417 126.895C60.2088 126.732 60.556 126.241 60.7894 126.244Z" fill="#0386B6"/>
</g>
<mask id="mask12_58819_958" style="mask-type:luminance" maskUnits="userSpaceOnUse" x="0" y="0" width="155" height="146">
<path d="M0 0H154.647V145.223H0V0Z" fill="white"/>
</mask>
<g mask="url(#mask12_58819_958)">
<path fill-rule="evenodd" clip-rule="evenodd" d="M68.3759 118.659C68.7082 118.824 69.0166 119.097 69.3245 119.306C69.9545 119.735 70.5822 120.171 71.2226 120.584C72.9607 121.705 74.7927 122.7 76.6796 123.546C81.7655 125.827 87.063 127.424 92.5699 128.293C94.1995 128.55 95.858 128.552 97.4824 128.738C97.1646 129.117 96.3589 129.278 95.9037 129.44C94.381 129.982 92.8047 130.385 91.2269 130.729C88.2571 131.379 85.2613 132.101 82.2214 132.325C80.1324 132.479 78.0326 132.522 75.9382 132.515C75.5331 132.513 75.1231 132.523 74.7187 132.493C74.4721 132.474 74.2091 132.389 73.9641 132.401C73.8631 132.101 73.3212 131.997 73.0532 131.924C72.1809 131.684 71.3328 131.388 70.4992 131.036C68.176 130.055 65.8618 129.042 63.6094 127.905C62.9366 127.565 62.2757 127.213 61.6333 126.818C61.3573 126.648 61.0053 126.488 60.7894 126.244C60.8144 126.071 61.0587 125.933 61.1848 125.81C61.569 125.434 61.9506 125.057 62.3288 124.676C63.765 123.227 65.162 121.74 66.6054 120.299C67.039 119.866 67.4618 119.422 67.8958 118.99C68.0247 118.862 68.1984 118.604 68.3759 118.659Z" fill="#059ECC"/>
</g>
<mask id="mask13_58819_958" style="mask-type:luminance" maskUnits="userSpaceOnUse" x="0" y="0" width="155" height="146">
<path d="M0 0H154.647V145.223H0V0Z" fill="white"/>
</mask>
<g mask="url(#mask13_58819_958)">
<path fill-rule="evenodd" clip-rule="evenodd" d="M75.7295 37.7696C76.2001 38.3649 76.8134 38.889 77.3706 39.4025C78.4934 40.4371 79.6731 41.4086 80.7926 42.4474C81.2112 42.8358 81.637 43.2309 82.0167 43.6574C82.1114 43.7639 82.3677 43.979 82.3338 44.1298C81.1187 44.065 79.8927 44.1069 78.6759 44.1084C76.6262 44.1109 74.5762 44.1089 72.5266 44.1099C71.6682 44.1104 70.8094 44.1139 69.9511 44.1077C69.6652 44.1054 69.1035 44.0094 68.8682 44.154C68.5289 43.9698 68.2833 43.6365 68.0186 43.3618C67.6065 42.9345 67.1767 42.5252 66.7537 42.1088C65.2307 40.6103 63.6993 39.1098 62.1589 37.629C65.5286 37.5737 68.9061 37.6285 72.277 37.6288C73.1057 37.6288 73.9343 37.6186 74.763 37.6186C75.0576 37.6186 75.5061 37.5443 75.7295 37.7696Z" fill="#63F0FB"/>
</g>
<mask id="mask14_58819_958" style="mask-type:luminance" maskUnits="userSpaceOnUse" x="0" y="0" width="155" height="146">
<path d="M0 0H154.647V145.223H0V0Z" fill="white"/>
</mask>
<g mask="url(#mask14_58819_958)">
<path fill-rule="evenodd" clip-rule="evenodd" d="M76.2441 110.807C76.4271 111.023 76.7255 111.159 76.9601 111.314C77.4454 111.637 77.9191 111.975 78.4114 112.287C80.1764 113.407 82.0043 114.349 83.8789 115.27C91.0985 118.817 99.1065 120.528 107.114 120.744C108.585 120.784 110.089 120.868 111.558 120.806C111.522 121.039 111.006 121.274 110.822 121.408C110.035 121.982 109.231 122.538 108.422 123.081C105.923 124.756 103.345 126.262 100.585 127.475C99.8764 127.787 99.1709 128.112 98.4437 128.38C98.1328 128.494 97.8082 128.68 97.4824 128.738C95.858 128.552 94.1995 128.55 92.5698 128.293C87.0629 127.424 81.7654 125.827 76.6796 123.546C74.7927 122.7 72.9606 121.705 71.2226 120.584C70.5821 120.171 69.9544 119.735 69.3245 119.306C69.0166 119.097 68.7082 118.824 68.3759 118.659C68.2944 118.524 68.6344 118.296 68.7483 118.188C69.1786 117.78 69.5987 117.363 70.019 116.945C71.6032 115.372 73.1656 113.771 74.7254 112.173C75.0871 111.803 75.4541 111.438 75.817 111.069C75.9544 110.929 76.0661 110.687 76.2441 110.807Z" fill="#00DBF4"/>
</g>
<mask id="mask15_58819_958" style="mask-type:luminance" maskUnits="userSpaceOnUse" x="0" y="0" width="155" height="146">
<path d="M0 0H154.647V145.223H0V0Z" fill="white"/>
</mask>
<g mask="url(#mask15_58819_958)">
<path fill-rule="evenodd" clip-rule="evenodd" d="M68.8682 44.154C69.1035 44.0094 69.6652 44.1054 69.9511 44.1077C70.8094 44.1139 71.6682 44.1104 72.5265 44.1099C74.5762 44.1089 76.6262 44.1109 78.6759 44.1084C79.8927 44.1069 81.1187 44.065 82.3338 44.1298C83.0973 44.0511 83.8916 44.1099 84.6589 44.1099C86.127 44.1102 87.5948 44.1114 89.0629 44.1104C90.4757 44.1097 91.8884 44.1107 93.3012 44.1094C94.069 44.1087 94.8652 44.0488 95.6293 44.1323C96.257 44.0635 96.9067 44.0999 97.5379 44.091C98.3883 44.0787 99.2648 44.0326 100.11 44.1525C102.238 44.4549 104.541 45.4556 105.762 47.3053C106.151 47.8937 106.485 48.5747 106.697 49.2481C107.091 50.497 107.127 51.8283 107.131 53.1258C107.132 53.7022 107.037 54.3703 107.133 54.9347C107.009 56.4125 107.136 57.9567 107.135 59.4412C107.134 61.8284 107.06 64.2159 107.053 66.6004C107.05 67.6489 107.037 68.6975 107.033 69.746C107.032 70.1105 106.917 70.7352 107.078 71.0687C107.305 71.5379 107.925 71.9413 108.282 72.3162C109.283 73.3665 110.327 74.3734 111.336 75.4164C112.204 76.3146 113.11 77.1894 113.943 78.1205C114.157 78.3591 114.369 78.5992 114.578 78.842C114.65 78.9252 114.76 79.1174 114.871 79.1419C114.75 80.6434 114.863 82.1992 114.864 83.7059C114.864 85.7142 114.776 87.743 114.854 89.7488C113.893 88.813 113.047 87.7253 112.121 86.7496C109.259 83.7331 106.417 80.7 103.543 77.6947C102.313 76.4091 101.077 75.1287 99.8399 73.8499C99.3176 73.3099 98.5037 72.7889 98.1547 72.1168C98.0667 71.2649 98.1582 70.3538 98.1587 69.4962C98.1599 67.3079 98.1611 65.1196 98.1601 62.9316C98.1596 61.8015 98.2639 60.6114 98.1365 59.4888C98.0265 59.2904 97.8176 59.1348 97.6633 58.9695C97.2871 58.5662 96.9022 58.1723 96.5161 57.7784C95.2893 56.528 94.0323 55.3074 92.7836 54.0791C92.3147 53.618 91.8628 53.1398 91.3908 52.6821C91.2029 52.4996 90.9842 52.2067 90.7409 52.104C90.3618 52.0414 89.9459 52.0821 89.5618 52.0833C88.8692 52.0855 88.1767 52.0853 87.4842 52.0853C85.2405 52.0851 82.9966 52.0873 80.753 52.089C79.8957 52.0898 79.0339 52.0678 78.177 52.0988C77.8547 52.1102 77.3661 52.2334 77.0669 52.0938C75.2027 50.002 73.0187 48.1587 70.9789 46.2424C70.4517 45.7468 69.9095 45.2646 69.3929 44.7576C69.2516 44.6187 68.8769 44.3572 68.8682 44.154Z" fill="#00DFF5"/>
</g>
<mask id="mask16_58819_958" style="mask-type:luminance" maskUnits="userSpaceOnUse" x="0" y="0" width="155" height="146">
<path d="M0 0H154.647V145.223H0V0Z" fill="white"/>
</mask>
<g mask="url(#mask16_58819_958)">
<path fill-rule="evenodd" clip-rule="evenodd" d="M89.1118 37.7656C89.2138 37.9728 89.4299 38.1298 89.5949 38.2871C89.9108 38.588 90.2242 38.8922 90.5373 39.1958C91.693 40.3176 92.8766 41.4155 94.0705 42.4965C94.4863 42.8729 94.9204 43.2458 95.3035 43.6559C95.3985 43.7574 95.667 43.9875 95.6294 44.1323C94.8653 44.0488 94.069 44.1086 93.3012 44.1094C91.8885 44.1106 90.4757 44.1096 89.063 44.1104C87.5949 44.1114 86.127 44.1101 84.6589 44.1099C83.8916 44.1099 83.0974 44.0511 82.3338 44.1298C82.3677 43.979 82.1114 43.7639 82.0167 43.6574C81.637 43.2309 81.2112 42.8358 80.7926 42.4474C79.6731 41.4086 78.4934 40.4371 77.3706 39.4025C76.8134 38.8889 76.2002 38.3649 75.7295 37.7696C75.7442 37.5442 76.2513 37.629 76.4569 37.6275C77.2519 37.6215 78.0469 37.6278 78.8419 37.6275C81.1132 37.6268 83.3845 37.6268 85.6559 37.6275C86.3207 37.6278 86.9856 37.6305 87.6505 37.6225C88.0538 37.6175 88.5055 37.5637 88.9034 37.6402C88.9966 37.6582 89.0251 37.7377 89.1118 37.7656Z" fill="#9DFCFF"/>
</g>
<mask id="mask17_58819_958" style="mask-type:luminance" maskUnits="userSpaceOnUse" x="0" y="0" width="155" height="146">
<path d="M0 0H154.647V145.223H0V0Z" fill="white"/>
</mask>
<g mask="url(#mask17_58819_958)">
<path fill-rule="evenodd" clip-rule="evenodd" d="M83.4038 103.566C87.8746 106.428 92.9742 108.324 98.1343 109.488C102.574 110.49 107.028 111.022 111.582 111.008C114.335 110.999 117.041 110.827 119.747 110.292C120.596 110.124 121.406 109.897 122.238 109.668C122.55 109.582 122.893 109.533 123.186 109.42C120.504 112.617 117.777 115.693 114.591 118.408C113.849 119.041 113.095 119.658 112.328 120.262C112.141 120.41 111.962 120.568 111.769 120.709C111.707 120.754 111.63 120.836 111.558 120.806C110.089 120.868 108.585 120.784 107.114 120.744C99.1065 120.528 91.0985 118.817 83.8789 115.27C82.0043 114.349 80.1764 113.407 78.4114 112.287C77.9191 111.975 77.4454 111.637 76.9601 111.314C76.7255 111.159 76.4271 111.024 76.2441 110.807C76.174 110.622 76.3555 110.53 76.4854 110.396C76.8207 110.05 77.1625 109.71 77.501 109.367C78.916 107.932 80.3477 106.513 81.7669 105.082C82.1671 104.679 82.6026 104.287 82.9753 103.859C83.1084 103.706 83.2196 103.448 83.4038 103.566Z" fill="#72F2FC"/>
</g>
<mask id="mask18_58819_958" style="mask-type:luminance" maskUnits="userSpaceOnUse" x="0" y="0" width="155" height="146">
<path d="M0 0H154.647V145.223H0V0Z" fill="white"/>
</mask>
<g mask="url(#mask18_58819_958)">
<path fill-rule="evenodd" clip-rule="evenodd" d="M114.838 59.7017C114.644 59.6366 114.509 59.4282 114.374 59.2796C114.079 58.9541 113.803 58.6123 113.512 58.2835C112.788 57.4665 112.029 56.6748 111.25 55.9107C110.897 55.5657 110.536 55.1242 110.111 54.8694C109.502 54.723 108.751 54.8806 108.125 54.8853C107.814 54.8878 107.426 54.825 107.133 54.9347C107.038 54.3703 107.132 53.7022 107.131 53.1258C107.127 51.8282 107.091 50.497 106.697 49.2481C106.485 48.5747 106.151 47.8936 105.762 47.3053C104.541 45.4556 102.238 44.4549 100.11 44.1525C99.2648 44.0326 98.3883 44.0787 97.5379 44.0909C96.9067 44.0999 96.2571 44.0635 95.6293 44.1323C95.667 43.9875 95.3985 43.7574 95.3035 43.6559C94.9204 43.2458 94.4863 42.8729 94.0705 42.4964C92.8766 41.4155 91.693 40.3176 90.5373 39.1958C90.2242 38.8922 89.9108 38.588 89.5949 38.2871C89.4299 38.1298 89.2138 37.9728 89.1118 37.7656C89.2277 37.5096 89.9502 37.628 90.2264 37.6285C91.3345 37.631 92.4424 37.6275 93.5502 37.6277C95.2123 37.628 96.8741 37.6287 98.5361 37.6282C99.5477 37.628 100.575 37.6788 101.582 37.5736C103.08 37.4173 104.609 36.928 105.891 36.1382C107.03 35.4375 107.905 34.4744 108.864 33.5633C110.31 32.1899 111.774 30.8425 113.201 29.4472C117.497 25.2461 121.784 21.0196 125.982 16.72C126.992 15.6847 128.032 14.677 129.034 13.6337C130.157 12.4661 131.272 11.2415 132.646 10.3613C136.202 8.08272 141.059 8.65461 143.871 11.8605C144.404 12.4683 144.835 13.1501 145.17 13.8848C145.476 14.5574 145.732 15.2614 145.835 15.9966C146.057 17.5945 145.9 19.3797 145.151 20.8333C144.235 22.6135 142.768 23.9794 141.377 25.3854C139.539 27.2434 137.655 29.0555 135.815 30.9115C131.239 35.5259 126.555 40.0317 121.987 44.6528C121.026 45.6251 120.05 46.5814 119.056 47.52C117.799 48.7073 116.551 49.873 115.808 51.469C115.139 52.9072 114.842 54.4919 114.848 56.0697C114.852 56.8747 114.866 57.6799 114.867 58.4851C114.867 58.8663 114.926 59.3317 114.838 59.7017ZM108.832 39.8452C108.742 40.4939 108.784 41.1675 108.975 41.7957C109.185 42.4907 109.519 43.1655 110.037 43.6858C110.381 44.0326 110.777 44.2953 111.213 44.513C113.893 45.8497 117.214 44.1019 117.633 41.1321C118.063 38.0912 115.237 35.2948 112.186 36.1065C111.745 36.2237 111.316 36.3613 110.923 36.5979C110.315 36.9646 109.845 37.4914 109.466 38.0852C109.124 38.6219 108.92 39.2162 108.832 39.8452ZM118.386 31.1179C118.272 31.6861 118.313 32.2283 118.419 32.7939C118.518 33.3247 118.738 33.817 119.025 34.2727C119.299 34.7085 119.659 35.1014 120.067 35.4155C122.696 37.4373 126.616 35.767 127.249 32.5898C127.361 32.0289 127.352 31.4291 127.238 30.8689C127.127 30.3242 126.926 29.8007 126.623 29.3332C126.292 28.8227 125.893 28.3642 125.387 28.0217C123.416 26.6892 120.769 27.2245 119.319 29.068C118.848 29.6668 118.535 30.3716 118.386 31.1179ZM127.535 21.6493C127.492 22.3623 127.604 23.0413 127.85 23.7117C128.058 24.2788 128.378 24.8041 128.786 25.2491C129.105 25.5973 129.478 25.8808 129.894 26.1034C132.7 27.6046 136.299 25.4084 136.495 22.3166C136.604 20.5831 135.494 18.7358 133.907 18.0191C131.777 17.0575 129.044 17.8922 127.987 20.0029C127.732 20.5125 127.57 21.0784 127.535 21.6493Z" fill="#82F8FE"/>
</g>
<mask id="mask19_58819_958" style="mask-type:luminance" maskUnits="userSpaceOnUse" x="0" y="0" width="155" height="146">
<path d="M0 0H154.647V145.223H0V0Z" fill="white"/>
</mask>
<g mask="url(#mask19_58819_958)">
<path fill-rule="evenodd" clip-rule="evenodd" d="M107.133 54.9347C107.426 54.825 107.814 54.8879 108.125 54.8854C108.751 54.8806 109.502 54.7231 110.111 54.8694C110.536 55.1242 110.897 55.5657 111.25 55.9107C112.029 56.6748 112.788 57.4666 113.512 58.2835C113.803 58.6123 114.079 58.9541 114.374 59.2797C114.509 59.4282 114.644 59.6366 114.838 59.7017C114.933 60.6273 114.861 61.5859 114.86 62.516C114.859 64.261 114.859 66.0061 114.859 67.7512C114.859 70.3271 114.861 72.9031 114.862 75.4792C114.863 76.6946 114.924 77.9293 114.871 79.1419C114.76 79.1174 114.65 78.9252 114.578 78.842C114.37 78.5992 114.157 78.3591 113.943 78.1205C113.11 77.1894 112.204 76.3146 111.336 75.4164C110.327 74.3734 109.283 73.3665 108.283 72.3162C107.925 71.9413 107.305 71.5379 107.078 71.0688C106.917 70.7352 107.032 70.1105 107.033 69.746C107.037 68.6975 107.05 67.6489 107.053 66.6004C107.06 64.2159 107.135 61.8284 107.136 59.4412C107.136 57.9567 107.009 56.4125 107.133 54.9347Z" fill="#82F8FE"/>
</g>
<mask id="mask20_58819_958" style="mask-type:luminance" maskUnits="userSpaceOnUse" x="0" y="0" width="155" height="146">
<path d="M0 0H154.647V145.223H0V0Z" fill="white"/>
</mask>
<g mask="url(#mask20_58819_958)">
<path fill-rule="evenodd" clip-rule="evenodd" d="M108.832 39.8452C108.92 39.2163 109.124 38.622 109.466 38.0852C109.845 37.4914 110.315 36.9647 110.923 36.5979C111.316 36.3614 111.745 36.2237 112.186 36.1066C115.237 35.2949 118.063 38.0912 117.634 41.1321C117.214 44.1019 113.893 45.8497 111.213 44.513C110.777 44.2954 110.381 44.0326 110.037 43.6859C109.52 43.1656 109.185 42.4907 108.975 41.7957C108.784 41.1675 108.742 40.4939 108.832 39.8452Z" fill="#FAFFFF"/>
</g>
<mask id="mask21_58819_958" style="mask-type:luminance" maskUnits="userSpaceOnUse" x="0" y="0" width="155" height="146">
<path d="M0 0H154.647V145.223H0V0Z" fill="white"/>
</mask>
<g mask="url(#mask21_58819_958)">
<path fill-rule="evenodd" clip-rule="evenodd" d="M118.386 31.1179C118.535 30.3715 118.848 29.6668 119.319 29.068C120.769 27.2245 123.416 26.6892 125.387 28.0217C125.893 28.3642 126.292 28.8227 126.623 29.3332C126.926 29.8007 127.127 30.3242 127.238 30.8689C127.352 31.4291 127.361 32.0289 127.249 32.5898C126.616 35.767 122.696 37.4373 120.067 35.4155C119.659 35.1014 119.299 34.7085 119.025 34.2727C118.738 33.817 118.518 33.3247 118.419 32.7939C118.313 32.2283 118.272 31.6861 118.386 31.1179Z" fill="white"/>
</g>
<path fill-rule="evenodd" clip-rule="evenodd" d="M127.535 21.6493C127.57 21.0784 127.732 20.5125 127.987 20.003C129.044 17.8922 131.777 17.0576 133.907 18.0191C135.494 18.7358 136.604 20.5831 136.495 22.3167C136.299 25.4084 132.7 27.6047 129.895 26.1034C129.478 25.8808 129.105 25.5974 128.786 25.2491C128.378 24.8041 128.058 24.2788 127.85 23.7117C127.604 23.0414 127.492 22.3623 127.535 21.6493Z" fill="white"/>
</g>
</svg>
